:FULLY-SPECIFIED
:FORCE-ALL-JOINTS-BE-3DOF
:DEGREES
307
root 9.97938 16.6918 6.24279 7.42759 6.75215 4.51748
lfemur 11.8724 3.5889 -27.5552
ltibia 3.6905 0 0
lfoot -14.7767 0.325073 0
ltoes 0.161069 0 0
rfemur -41.766 11.2447 4.76968
rtibia 28.8337 0 0
rfoot -28.2941 -17.4088 0
rtoes -20.62 0 0
lowerback -7.85986 -4.5421 -6.21279
upperback -0.700456 -5.5687 1.93073
thorax 4.47575 -2.90232 4.80003
lowerneck -19.5563 -4.92704 -12.5113
upperneck 21.7995 -6.17924 12.0979
head 11.0789 -2.44449 5.59209
lclavicle -8.50982e-014 2.14431e-014 0
lhumerus -13.7593 -35.6438 91.1771
lradius 37.2608 0 0
lwrist 14.5042 0 0
lhand -10.7757 -21.7394 0
lfingers 7.12502 0 0
lthumb 15.2363 7.6752 0
rclavicle -8.50982e-014 2.14431e-014 0
rhumerus -48.739 5.0857 -82.2814
rradius 33.3495 0 0
rwrist -17.7728 0 0
rhand -26.6618 -25.3858 0
rfingers 7.12502 0 0
rthumb -0.0934427 -55.3638 0
308
root 9.9779 16.6861 6.38656 7.50242 7.07626 4.60641
lfemur 12.8286 3.51637 -27.5164
ltibia 2.76788 0 0
lfoot -14.6329 0.126458 0
ltoes 0.160963 0 0
rfemur -42.1895 11.7241 4.2817
rtibia 27.7101 0 0
rfoot -28.5851 -17.5991 0
rtoes -20.79 0 0
lowerback -7.9678 -4.62313 -6.3327
upperback -0.717318 -5.66267 1.92182
thorax 4.53811 -2.95188 4.84131
lowerneck -19.4735 -4.97342 -12.5493
upperneck 21.7918 -6.24792 12.1203
head 11.0719 -2.47869 5.59558
lclavicle -8.68641e-014 2.16483e-014 0
lhumerus -13.6143 -36.4078 91.3531
lradius 37.7284 0 0
lwrist 15.0257 0 0
lhand -10.6503 -21.6509 0
lfingers 7.12502 0 0
lthumb 15.3571 7.7554 0
rclavicle -8.68641e-014 2.16483e-014 0
rhumerus -48.8499 4.99542 -82.2669
rradius 33.0298 0 0
rwrist -17.587 0 0
rhand -26.5769 -25.5216 0
rfingers 7.12502 0 0
rthumb -0.0114358 -55.5 0
309
root 9.97643 16.6804 6.53033 7.57726 7.40037 4.69535
lfemur 13.7848 3.44385 -27.4777
ltibia 1.84525 0 0
lfoot -14.4892 -0.0721569 0
ltoes 0.160857 0 0
rfemur -42.6129 12.2036 3.79373
rtibia 26.5865 0 0
rfoot -28.8761 -17.7895 0
rtoes -20.9601 0 0
lowerback -8.07575 -4.70417 -6.4526
upperback -0.73418 -5.75663 1.91291
thorax 4.60046 -3.00143 4.88258
lowerneck -19.3907 -5.01979 -12.5873
upperneck 21.7841 -6.31661 12.1427
head 11.065 -2.51289 5.59908
lclavicle -8.86299e-014 2.18535e-014 0
lhumerus -13.4692 -37.1717 91.5291
lradius 38.1959 0 0
lwrist 15.5472 0 0
lhand -10.525 -21.5625 0
lfingers 7.12502 0 0
lthumb 15.4779 7.83559 0
rclavicle -8.86299e-014 2.18535e-014 0
rhumerus -48.9609 4.90514 -82.2524
rradius 32.71 0 0
rwrist -17.4012 0 0
rhand -26.492 -25.6575 0
rfingers 7.12502 0 0
rthumb 0.0705711 -55.6363 0
310
root 9.97496 16.6746 6.6741 7.65209 7.72448 4.78429
lfemur 14.741 3.37132 -27.4389
ltibia 0.922626 0 0
lfoot -14.3455 -0.270772 0
ltoes 0.160752 0 0
rfemur -43.0364 12.683 3.30575
rtibia 25.4629 0 0
rfoot -29.1671 -17.9799 0
rtoes -21.1302 0 0
lowerback -8.18369 -4.7852 -6.57251
upperback -0.751042 -5.85059 1.904
thorax 4.66282 -3.05098 4.92385
lowerneck -19.3078 -5.06617 -12.6252
upperneck 21.7765 -6.38529 12.165
head 11.058 -2.54709 5.60257
lclavicle -9.03957e-014 2.20587e-014 0
lhumerus -13.3242 -37.9357 91.7052
lradius 38.6634 0 0
lwrist 16.0687 0 0
lhand -10.3996 -21.474 0
lfingers 7.12502 0 0
lthumb 15.5987 7.91579 0
rclavicle -9.03957e-014 2.20587e-014 0
rhumerus -49.0718 4.81487 -82.2379
rradius 32.3903 0 0
rwrist -17.2154 0 0
rhand -26.4071 -25.7934 0
rfingers 7.12502 0 0
rthumb 0.152578 -55.7726 0
